<?xml version="1.0" standalone="no"?>
<!DOCTYPE svg PUBLIC "-//W3C//DTD SVG 20010904//EN"
 "http://www.w3.org/TR/2001/REC-SVG-20010904/DTD/svg10.dtd">
<svg version="1.0" xmlns="http://www.w3.org/2000/svg"
 width="1048.000000pt" height="1048.000000pt" viewBox="0 0 1048.000000 1048.000000"
 preserveAspectRatio="xMidYMid meet">
<metadata>
Created by potrace 1.11, written by Peter Selinger 2001-2013
</metadata>
<g transform="translate(0.000000,1048.000000) scale(0.100000,-0.100000)"
fill="#000000" stroke="none">
<path d="M31 9728 c17 -29 33 -61 36 -70 3 -10 9 -18 13 -18 4 0 14 -15 21
-32 7 -18 26 -52 41 -74 15 -23 28 -46 28 -52 0 -5 7 -15 15 -22 8 -7 12 -16
9 -21 -3 -5 0 -9 5 -9 6 0 11 -6 11 -14 0 -8 3 -16 8 -18 7 -3 43 -66 66 -115
6 -13 14 -23 19 -23 4 0 7 -4 7 -9 0 -5 19 -42 43 -83 24 -40 46 -80 50 -88 4
-8 21 -37 38 -65 16 -27 33 -58 36 -67 3 -10 9 -18 14 -18 5 0 9 -5 9 -10 0
-6 15 -35 34 -65 19 -29 32 -56 29 -59 -4 -3 -2 -6 4 -6 6 0 16 -12 22 -27 6
-16 22 -46 36 -68 14 -22 30 -51 37 -65 7 -14 15 -27 19 -30 3 -3 19 -30 36
-60 16 -30 41 -73 53 -95 13 -22 37 -65 54 -95 16 -30 33 -57 36 -60 4 -3 13
-20 21 -37 8 -18 17 -33 21 -33 5 0 8 -4 8 -10 0 -5 13 -31 29 -58 16 -27 44
-76 62 -108 17 -32 38 -65 46 -72 7 -7 13 -19 13 -25 0 -7 11 -29 25 -50 14
-20 40 -63 57 -94 17 -32 40 -71 50 -88 10 -16 23 -41 29 -55 5 -13 14 -27 18
-30 4 -3 23 -34 42 -70 19 -35 39 -70 46 -77 6 -7 15 -23 18 -34 4 -12 14 -30
24 -40 9 -11 16 -23 16 -27 0 -4 8 -18 17 -32 35 -55 88 -152 88 -161 0 -5 5
-9 10 -9 6 0 10 -4 10 -10 0 -5 18 -39 40 -75 22 -36 40 -67 40 -70 0 -4 67
-119 90 -155 6 -8 13 -21 17 -29 3 -8 36 -64 71 -125 36 -61 78 -136 95 -166
17 -30 34 -56 39 -58 4 -2 8 -8 8 -13 0 -11 117 -218 136 -239 7 -8 13 -18 13
-23 0 -4 25 -49 54 -100 30 -50 64 -109 76 -129 45 -80 64 -114 82 -143 11
-16 26 -45 34 -62 8 -18 20 -33 27 -33 6 0 9 -3 6 -6 -4 -3 16 -45 44 -92 28
-48 59 -103 70 -122 17 -30 66 -114 98 -170 77 -133 239 -412 278 -482 12 -20
32 -54 45 -75 13 -21 26 -45 30 -53 4 -8 18 -33 32 -55 14 -22 28 -46 32 -54
3 -8 51 -90 105 -183 54 -93 98 -174 98 -179 0 -5 4 -9 9 -9 5 0 11 -6 13 -12
3 -11 88 -163 147 -263 10 -16 29 -51 43 -76 46 -83 53 -94 58 -99 3 -3 11
-16 18 -30 7 -14 23 -43 36 -65 13 -22 36 -62 51 -90 15 -27 35 -61 44 -75 10
-14 21 -32 24 -40 4 -8 20 -37 37 -65 17 -27 33 -58 37 -67 3 -10 9 -18 14
-18 5 0 9 -4 9 -10 0 -5 32 -64 72 -132 39 -68 85 -148 101 -178 16 -30 35
-62 42 -70 7 -8 15 -22 18 -30 4 -8 22 -42 42 -75 20 -33 38 -68 42 -77 3 -10
8 -18 12 -18 4 0 13 -16 21 -35 8 -19 17 -35 22 -35 4 0 8 -4 8 -10 0 -5 23
-47 50 -94 27 -47 50 -89 50 -95 0 -6 4 -11 9 -11 5 0 11 -8 15 -17 3 -10 10
-25 16 -33 12 -19 204 -351 213 -371 4 -8 18 -32 32 -54 14 -22 33 -56 43 -75
9 -19 20 -37 23 -40 4 -3 17 -25 29 -50 12 -25 25 -47 29 -50 7 -6 28 -41 56
-97 12 -23 27 -48 32 -55 6 -7 24 -38 40 -68 16 -30 41 -74 56 -97 15 -24 27
-45 27 -48 0 -2 16 -29 35 -60 20 -30 32 -55 28 -55 -4 0 -1 -6 7 -13 8 -7 24
-31 35 -54 11 -24 23 -43 28 -43 4 0 7 -4 7 -9 0 -9 49 -99 88 -161 9 -14 15
-27 15 -30 -1 -3 4 -12 11 -20 12 -13 131 -218 162 -278 l11 -22 15 22 c8 13
16 26 16 31 1 4 17 32 37 62 19 31 35 60 35 65 0 6 5 10 12 10 6 0 8 3 5 7 -4
3 -1 13 7 22 8 9 25 36 38 61 46 85 81 145 99 172 11 14 19 31 19 37 0 6 5 11
10 11 6 0 10 9 10 20 0 11 5 20 10 20 6 0 10 7 10 15 0 8 5 15 11 15 5 0 8 4
4 9 -3 5 -1 12 4 16 5 3 16 18 24 33 7 15 37 67 65 116 29 49 52 93 52 97 0 5
4 9 9 9 5 0 14 12 20 28 6 15 19 41 29 57 9 17 34 59 55 95 20 36 42 72 47 80
5 8 22 38 37 65 15 28 32 58 38 67 5 9 37 63 69 120 33 57 67 115 77 129 10
14 16 29 12 33 -3 3 -2 6 4 6 6 0 16 13 23 30 7 17 17 30 23 30 6 0 8 3 4 6
-3 3 14 39 39 79 24 40 44 77 44 83 0 6 4 12 8 14 9 4 102 167 102 179 0 5 4
9 9 9 5 0 11 8 14 17 4 10 22 45 42 78 20 33 41 71 48 85 6 14 14 27 18 30 3
3 16 23 28 45 11 22 32 58 46 80 13 22 31 54 39 70 19 39 59 109 67 115 3 3
23 37 44 75 21 39 44 79 50 90 6 11 22 38 36 60 36 60 57 97 71 127 7 16 16
28 20 28 4 0 8 6 8 13 0 7 11 28 23 47 13 19 35 55 49 80 41 73 70 123 89 155
11 17 22 37 26 45 4 8 26 48 50 88 24 40 43 77 43 82 0 6 4 10 8 10 4 0 13 12
20 28 6 15 22 45 35 67 83 140 133 226 155 265 14 25 33 59 43 75 49 83 89
157 89 165 0 4 4 10 8 12 5 2 33 46 63 98 30 52 59 104 66 115 7 11 15 27 19
35 7 13 46 81 79 135 7 11 13 25 14 30 1 6 8 17 15 25 8 8 33 50 57 93 24 43
49 86 54 95 6 10 47 82 93 162 46 80 88 152 93 160 48 80 99 173 99 181 0 5 4
9 9 9 5 0 13 10 17 23 4 12 22 46 40 75 19 29 34 56 34 61 0 5 3 11 7 13 5 2
16 19 25 38 10 19 47 85 83 145 36 61 72 124 81 140 8 17 23 44 34 60 11 17
25 41 30 55 6 13 15 27 19 30 4 3 14 19 23 35 33 67 82 151 94 166 8 8 14 18
14 21 0 3 23 45 51 94 29 49 60 103 70 121 10 17 29 50 43 72 15 22 26 45 26
49 0 5 9 21 20 34 10 14 16 28 13 32 -3 3 -1 6 5 6 7 0 18 15 26 33 8 17 29
55 45 82 17 28 34 57 38 65 3 8 21 38 39 67 18 28 30 54 27 57 -4 3 -1 6 5 6
7 0 12 4 12 9 0 5 25 50 55 100 30 51 55 94 55 97 0 3 15 28 33 57 18 29 40
67 48 85 7 17 17 32 21 32 5 0 8 7 8 15 0 8 5 15 12 15 6 0 9 3 5 6 -3 4 10
29 29 58 18 28 34 54 34 58 0 4 17 36 38 70 35 56 60 100 111 191 9 16 21 36
26 45 6 9 30 52 54 94 23 43 47 80 52 84 5 3 7 10 4 15 -4 5 -1 9 4 9 6 0 11
6 11 14 0 8 3 16 8 18 6 3 27 38 71 123 9 16 19 32 22 35 3 3 9 12 12 20 4 8
15 29 25 45 10 17 34 57 52 90 18 33 38 67 44 75 7 8 17 26 24 40 6 14 23 43
36 65 41 67 86 148 86 157 0 4 5 8 10 8 6 0 10 4 10 9 0 12 71 134 83 142 5 3
8 9 7 13 -1 6 50 97 107 191 6 11 24 44 38 73 15 28 31 52 37 52 6 0 9 3 6 6
-4 3 14 39 38 80 l44 74 -2017 -2 -2016 -3 -48 -80 c-27 -44 -48 -84 -49 -88
0 -4 -5 -13 -11 -20 -16 -19 -239 -408 -239 -418 0 -5 -4 -9 -10 -9 -5 0 -10
-4 -10 -10 0 -5 -35 -69 -78 -142 -43 -74 -81 -140 -85 -148 -4 -8 -17 -32
-30 -52 -12 -21 -35 -61 -51 -90 -15 -29 -34 -60 -42 -69 -8 -8 -14 -18 -14
-21 0 -4 -20 -41 -45 -82 -25 -42 -45 -79 -45 -81 0 -4 -40 -71 -78 -130 -6
-11 -15 -27 -19 -35 -3 -8 -15 -27 -25 -42 -11 -16 -16 -28 -12 -28 4 0 -1 -7
-12 -15 -10 -8 -15 -15 -11 -15 4 0 -7 -24 -26 -52 -18 -29 -36 -60 -41 -68
-4 -8 -12 -24 -19 -35 -7 -11 -54 -93 -105 -182 -51 -90 -97 -165 -101 -167
-4 -3 -16 12 -26 32 -11 20 -52 93 -92 161 -40 67 -73 124 -73 126 0 3 -75
131 -91 155 -5 8 -15 27 -22 43 -6 15 -15 27 -19 27 -4 0 -8 6 -8 13 0 6 -18
40 -40 75 -22 34 -40 65 -40 67 0 3 -17 33 -38 67 -21 35 -52 88 -69 118 -17
30 -62 111 -102 178 -39 68 -71 128 -71 133 0 5 -4 9 -9 9 -5 0 -11 8 -14 18
-6 17 -32 63 -88 155 -16 26 -29 51 -29 56 0 5 -3 11 -7 13 -5 2 -16 19 -26
38 -30 57 -53 98 -79 138 -13 20 -30 51 -38 67 -8 17 -25 44 -37 61 -13 17
-23 34 -23 37 0 3 -31 60 -70 126 -39 66 -70 122 -70 125 0 3 -8 15 -17 26
-17 20 -26 20 -2030 20 l-2013 0 31 -52z"/>
</g>
</svg>
