<svg xmlns="http://www.w3.org/2000/svg" width="512" height="512" viewBox="0 0 512 512">
  <g fill="none">
    <circle cx="256" cy="256" r="256" fill="#4C4C4C"/>
    <path fill="#232323" d="M200.49,353.325 L343.736,496.57 C441.908,460.757 512,366.564 512,256 C512,247.042 511.54,238.192 510.642,229.472 L359.24,78.07 L200.49,353.325 Z"/>
    <polygon fill="#FFF7E1" points="359.241 78.066 352.981 182.989 232.39 230.034 111.8 182.989 105.54 78.066"/>
    <polygon fill="#FFD997" points="359.24 78.07 352.98 182.99 232.39 230.03 232.39 78.07"/>
    <path fill="#FFB624" d="M352.981,182.989 L348.84,252.484 L344.414,259.74 C336.635,272.494 332.009,286.92 330.922,301.821 L321.225,434.679 L143.556,434.679 L133.858,301.805 C132.771,286.915 128.152,272.499 120.382,259.751 L115.953,252.485 L111.8,182.989 L352.981,182.989 L352.981,182.989 Z"/>
    <path fill="#F27E16" d="M352.98,182.99 L348.84,252.48 L344.41,259.74 C336.63,272.5 332.01,286.92 330.92,301.82 L321.22,434.68 L232.39,434.68 L232.39,182.99 L352.98,182.99 Z"/>
    <g transform="translate(267 256)">
      <path fill="#00A08D" d="M170.731,43.817 C170.731,43.817 16.957,38.005 54.225,178.68 C198.817,195.158 170.731,43.817 170.731,43.817 Z"/>
      <path fill="#64E2B1" d="M54.225,178.68 C-65.955,96.61 54.225,0.44 54.225,0.44 C54.225,0.44 174.405,96.61 54.225,178.68 Z"/>
    </g>
    <path fill="#1AC695" d="M321.225,434.68 L321.225,256.44 C321.225,256.44 441.405,352.61 321.225,434.68 Z"/>
  </g>
</svg>
