<?xml version="1.0" standalone="no"?>
<!DOCTYPE svg PUBLIC "-//W3C//DTD SVG 20010904//EN"
 "http://www.w3.org/TR/2001/REC-SVG-20010904/DTD/svg10.dtd">
<svg version="1.0" xmlns="http://www.w3.org/2000/svg"
 width="700.000000pt" height="700.000000pt" viewBox="0 0 700.000000 700.000000"
 preserveAspectRatio="xMidYMid meet">
<metadata>
Created by potrace 1.11, written by Peter Selinger 2001-2013
</metadata>
<g transform="translate(0.000000,700.000000) scale(0.100000,-0.100000)"
fill="#000000" stroke="none">
<path d="M3235 6989 c-1010 -77 -1928 -583 -2544 -1403 -606 -807 -829 -1872
-600 -2875 269 -1178 1159 -2153 2309 -2531 375 -124 693 -174 1100 -174 419
0 726 50 1130 184 879 291 1622 951 2030 1804 161 335 261 679 316 1081 14
100 18 197 18 425 0 317 -10 426 -70 720 -94 456 -295 918 -567 1300 -223 312
-519 610 -824 828 -662 473 -1484 703 -2298 641z m1675 -1076 c0 -55 -81
-1398 -85 -1410 -3 -10 -177 -13 -825 -13 l-820 0 0 -1715 0 -1715 -610 0
-610 0 0 25 c0 90 -133 1829 -146 1909 -26 164 -97 349 -189 492 l-38 59 -28
460 c-16 253 -46 762 -68 1130 -22 369 -43 698 -46 732 l-6 63 873 3 c480 1
1261 3 1736 5 l862 2 0 -27z m-93 -1550 c-3 -10 -5 -4 -5 12 0 17 2 24 5 18 2
-7 2 -21 0 -30z m-10 -165 c-3 -7 -5 -2 -5 12 0 14 2 19 5 13 2 -7 2 -19 0
-25z m-10 -170 c-3 -7 -5 -2 -5 12 0 14 2 19 5 13 2 -7 2 -19 0 -25z m-10
-165 c-3 -10 -5 -4 -5 12 0 17 2 24 5 18 2 -7 2 -21 0 -30z m-10 -170 c-3 -10
-5 -4 -5 12 0 17 2 24 5 18 2 -7 2 -21 0 -30z m-269 -298 c60 -58 112 -102
116 -98 4 4 5 1 2 -7 -3 -9 25 -51 70 -105 191 -226 330 -486 399 -740 26 -94
31 -339 11 -449 -47 -247 -177 -468 -403 -686 -115 -111 -290 -250 -314 -250
-20 0 -141 91 -258 194 -222 194 -378 432 -443 674 -29 110 -36 336 -14 457
47 253 180 522 382 775 74 92 317 340 334 340 5 0 59 -47 118 -105z"/>
</g>
</svg>
