<svg xmlns="http://www.w3.org/2000/svg" width="296" height="512"><g fill="none"><path fill="#CDEAE0" d="M137.045 464.512c-2.466-1.787-3.76-4.783-3.707-7.828l4.868-280.091a15.743 15.743 0 00-4.437-11.616l-28.558-29.399a23.317 23.317 0 01-6.592-16.244V7.522H49.143v111.813a23.308 23.308 0 01-6.592 16.244l-28.558 29.399a15.743 15.743 0 00-4.437 11.616l4.868 280.091c.053 3.045-1.242 6.04-3.707 7.828a6.48 6.48 0 00-2.677 5.444l.652 24.126c.157 5.797 4.901 10.416 10.701 10.416h108.976c5.799 0 10.545-4.618 10.701-10.416l.652-24.126a6.484 6.484 0 00-2.677-5.445z"/><path fill="#BFD8CE" d="M137.045 464.512c-2.466-1.787-3.76-4.783-3.707-7.828l4.868-280.091a15.743 15.743 0 00-4.437-11.616l-28.558-29.399a23.317 23.317 0 01-6.592-16.244V7.522H49.143v111.813c0 3.869-.971 7.637-2.764 10.991a23.284 23.284 0 003.826 5.253l28.558 29.399a15.743 15.743 0 014.437 11.616l-4.868 280.091c-.053 3.045 1.242 6.04 3.707 7.828a6.48 6.48 0 012.677 5.444l-.934 34.542h44.584c5.799 0 10.545-4.618 10.701-10.416l.652-24.126a6.473 6.473 0 00-2.674-5.445z"/><path fill="#E52D15" d="M97.183 103.797H50.579a4.09 4.09 0 01-4.089-4.089V11.59a4.09 4.09 0 014.089-4.089h46.604a4.09 4.09 0 014.089 4.089v88.118a4.09 4.09 0 01-4.089 4.089z"/><path fill="#FC502A" d="M43.579 226.741c19.611-11.232 40.981-11.231 60.601.024 3.896 2.235 8.773-.442 8.958-4.929l.439-10.671c.169-4.102-2.149-7.939-5.905-9.6-21.871-9.67-45.692-9.683-67.573-.024-3.758 1.659-6.079 5.496-5.91 9.602l.439 10.667c.182 4.485 5.055 7.162 8.951 4.931zm58.845 95.805H45.338a4.796 4.796 0 01-4.795-4.708l-.824-44.911a4.796 4.796 0 014.795-4.884h58.735a4.795 4.795 0 014.795 4.884l-.824 44.911a4.796 4.796 0 01-4.796 4.708z"/><path fill="#E5F9F6" d="M267.943 504.373h-68.515a10.757 10.757 0 01-10.732-10.029l-9.276-136.706a6.174 6.174 0 016.159-6.592h96.212a6.173 6.173 0 016.159 6.592l-9.276 136.706a10.754 10.754 0 01-10.731 10.029z"/><path fill="#D6E5E2" d="M281.791 351.048h-47.673l-10.403 153.325h44.227a10.757 10.757 0 0010.732-10.029l9.276-136.706a6.172 6.172 0 00-6.159-6.59z"/><path fill="#CDEAE0" d="M180.873 379.051l7.823 115.294a10.757 10.757 0 0010.732 10.029h68.515a10.757 10.757 0 0010.732-10.029l7.823-115.294H180.873z"/><path fill="#CDEAE0" d="M180.873 379.051l7.823 115.294a10.757 10.757 0 0010.732 10.029h68.515a10.757 10.757 0 0010.732-10.029l7.823-115.294H180.873z"/><path fill="#BFD8CE" d="M232.219 379.051l-8.503 125.323h44.227a10.757 10.757 0 0010.732-10.029l7.823-115.294h-54.279z"/><path fill="#DFEDE7" d="M275.734 480.509h-84.098a8.59 8.59 0 01-3.944-.954l1.003 14.79a10.757 10.757 0 0010.732 10.029h68.515a10.757 10.757 0 0010.732-10.029l1.003-14.79a8.583 8.583 0 01-3.943.954z"/><path fill="#D7E0DC" d="M278.675 494.345l.203-2.999.8-11.792a8.59 8.59 0 01-3.944.954h-50.4l-1.619 23.865h44.227c5.659 0 10.35-4.383 10.733-10.028z"/><path fill="#E52D15" d="M107.671 201.565c-8.062-3.564-16.389-5.806-24.786-6.746l-.42 24.172c7.357 1.135 14.649 3.72 21.715 7.774 3.896 2.235 8.773-.442 8.958-4.929l.439-10.671c.168-4.104-2.151-7.94-5.906-9.6zm-4.423 66.477H81.611l-.947 54.504h21.76a4.796 4.796 0 004.795-4.708l.824-44.911a4.794 4.794 0 00-4.795-4.885z"/><path fill="#000" d="M101.883 413.053H45.879a7.501 7.501 0 000 15.002h56.004a7.501 7.501 0 000-15.002zm0 23.169H45.879a7.501 7.501 0 000 15.002h56.004a7.501 7.501 0 000-15.002zm18.748-214.079l.439-10.672c.294-7.158-3.872-13.896-10.367-16.767-23.74-10.497-49.891-10.507-73.636-.026-6.502 2.87-10.671 9.61-10.376 16.772l.439 10.666c.195 4.742 2.791 8.943 6.944 11.237 4.158 2.297 9.105 2.258 13.232-.105 17.384-9.957 35.761-9.949 53.14.021a13.475 13.475 0 006.718 1.806c2.235 0 4.472-.564 6.52-1.694 4.155-2.293 6.752-6.494 6.947-11.238zm-14.887-3.084c-10.325-5.499-21.105-8.249-31.885-8.249-10.765 0-21.528 2.741-31.84 8.225l-.338-8.202c-.043-1.053.538-2.03 1.445-2.431 19.835-8.754 41.679-8.747 61.512.022.907.401 1.487 1.378 1.444 2.431l-.338 8.204zm8.975 98.917l.824-44.911a12.198 12.198 0 00-3.52-8.841 12.208 12.208 0 00-8.775-3.682H44.513a12.205 12.205 0 00-8.774 3.681 12.211 12.211 0 00-3.521 8.842l.824 44.911c.122 6.657 5.637 12.072 12.295 12.072h57.086c6.659-.001 12.174-5.417 12.296-12.072zm-14.95-2.93H47.993l-.725-39.503h53.226l-.725 39.503z"/><path fill="#000" d="M141.447 458.439c-.371-.269-.622-.937-.61-1.624l4.867-280.01a23.34 23.34 0 00-6.555-17.053l-28.559-29.398a15.732 15.732 0 01-4.47-11.019v-12.256a11.539 11.539 0 002.653-7.372V11.59c0-6.39-5.199-11.59-11.59-11.59H50.579c-6.391 0-11.59 5.199-11.59 11.59v88.118c0 2.797.996 5.366 2.653 7.372v12.256c0 4.137-1.587 8.051-4.471 11.018L8.613 159.753a23.342 23.342 0 00-6.556 17.053l.884 50.886a7.502 7.502 0 007.498 7.371l.133-.001a7.502 7.502 0 007.37-7.63l-.886-50.967-.005-.178a8.276 8.276 0 012.323-6.081l28.558-29.398a30.655 30.655 0 008.712-21.471v-8.038h34.475v8.038a30.65 30.65 0 008.712 21.471l28.559 29.399a8.272 8.272 0 012.323 6.08l-.005.178-4.868 280.09c-.095 5.438 2.278 10.521 6.373 13.707l-.638 23.621a3.187 3.187 0 01-3.203 3.118H19.393a3.187 3.187 0 01-3.203-3.118l-.639-23.62c4.094-3.187 6.467-8.269 6.373-13.707l-3.368-193.768a7.502 7.502 0 00-15 .26l3.368 193.768c.012.688-.239 1.355-.61 1.625a13.998 13.998 0 00-5.772 11.721l.652 24.126c.269 9.933 8.263 17.713 18.198 17.713h108.977c9.937 0 17.93-7.781 18.198-17.713l.652-24.126a13.992 13.992 0 00-5.772-11.723zM93.772 96.297h-39.78V41.191h39.78v55.106zm0-70.107h-39.78V15.001h39.78V26.19zm198.01 321.695a13.722 13.722 0 00-9.991-4.337H185.58a13.723 13.723 0 00-9.992 4.338 13.725 13.725 0 00-3.651 10.262l9.275 136.706c.648 9.544 8.65 17.021 18.215 17.021h68.515c7.474 0 13.974-4.573 16.777-11.121a18.075 18.075 0 001.438-5.9c0-.002 0 .002 0 0l9.275-136.706a13.717 13.717 0 00-3.65-10.263zm-20.59 145.953a3.256 3.256 0 01-1.535 2.541 3.265 3.265 0 01-.914.382 3.203 3.203 0 01-.799.112h-68.515a3.266 3.266 0 01-3.249-3.036l-.395-5.828h75.803l-.396 5.829zm8.297-122.288h-43.064a7.501 7.501 0 000 15.002h42.046l-5.866 86.457h-77.839l-5.865-86.457h12.626a7.501 7.501 0 000-15.002h-13.643l-.882-13.001h93.37l-.883 13.001z"/></g></svg>